<?xml version="1.0" encoding="utf-8"?>
<!-- Generator: Adobe Illustrator 27.2.0, SVG Export Plug-In . SVG Version: 6.00 Build 0)  -->
<svg version="1.1" id="programming" xmlns="http://www.w3.org/2000/svg" xmlns:xlink="http://www.w3.org/1999/xlink" x="0px"
	 y="0px" viewBox="0 0 660 356.7" style="enable-background:new 0 0 660 356.7;" xml:space="preserve">
<style type="text/css">
	.st0{fill:#C9C9C9;}
	.st1{fill:#CECECE;}
	.st2{fill:#FFFFFF;}
	.st3{fill:none;stroke:#1F3969;stroke-width:4;stroke-linecap:round;stroke-linejoin:round;stroke-miterlimit:10;}
	.st4{fill:#FF3E3E;}
	
		.st5{opacity:0.28;fill:#1F3969;stroke:#1F3969;stroke-width:4;stroke-linecap:round;stroke-linejoin:round;stroke-miterlimit:10;enable-background:new    ;}
	.st6{fill:#50B56F;}
	.st7{fill:#5F5AFF;}
	.st8{fill:#F6F9FD;}
	.st9{fill:#BFCFE2;}
	.st10{fill:#2D425E;}
	.st11{fill:#D0DDF0;}
	.st12{fill:none;stroke:#FFFFFF;stroke-width:2;stroke-linecap:round;stroke-linejoin:round;stroke-miterlimit:10;}
	.st13{fill:#1F3969;}
	.st14{fill:none;stroke:#FFFFFF;stroke-width:4;stroke-linecap:round;stroke-linejoin:round;stroke-miterlimit:10;}
	.st15{fill:none;stroke:#7BFFA0;stroke-width:4;stroke-linecap:round;stroke-linejoin:round;stroke-miterlimit:10;}
	.st16{fill:none;stroke:#9169FF;stroke-width:4;stroke-linecap:round;stroke-linejoin:round;stroke-miterlimit:10;}
	.st17{fill:none;stroke:#FFC47D;stroke-width:4;stroke-linecap:round;stroke-linejoin:round;stroke-miterlimit:10;}
	.st18{fill:none;stroke:#FF5757;stroke-width:4;stroke-linecap:round;stroke-linejoin:round;stroke-miterlimit:10;}
	.st19{fill:#FFA364;}
	.st20{fill:#2AA1FF;}
	.st21{fill:#FF5252;}
	.st22{fill:#6567C3;}
	.st23{enable-background:new    ;}
</style>
<path class="st0" d="M635.2,336.6H14.8c-5,0-9-4-9-9s4-9,9-9h620.3c5,0,9,4,9,9S640.1,336.6,635.2,336.6z"/>
<path class="st1" d="M131.6,243.6c-9.6,0-17.3-7.8-17.3-17.3s7.8-17.3,17.3-17.3h98v34.7L131.6,243.6L131.6,243.6z"/>
<path class="st2" d="M235.3,249.6H131.6c-12.9,0-23.3-10.5-23.3-23.3c0-12.9,10.5-23.3,23.3-23.3h103.7V249.6L235.3,249.6z"/>
<path class="st3" d="M125.2,220.9h104.4 M125.2,231.5h104.4 M131.6,243.6c-9.6,0-17.3-7.8-17.3-17.3s7.8-17.3,17.3-17.3h98v34.7
	L131.6,243.6L131.6,243.6z"/>
<path class="st4" d="M131.6,243.6c-9.6,0-17.3-7.8-17.3-17.3s7.8-17.3,17.3-17.3h99.7l4-6H131.6c-12.9,0-23.3,10.5-23.3,23.3
	c0,12.9,10.5,23.3,23.3,23.3h103.7l-4-6H131.6L131.6,243.6z"/>
<path class="st3" d="M131.6,243.6c-9.6,0-17.3-7.8-17.3-17.3s7.8-17.3,17.3-17.3h99.7l4-6H131.6c-12.9,0-23.3,10.5-23.3,23.3l0,0
	c0,12.9,10.5,23.3,23.3,23.3h103.7l-4-6H131.6L131.6,243.6z"/>
<path class="st5" d="M194.6,202.9H213v46.7h-18.4V202.9z"/>
<path class="st6" d="M224.6,288.2H34.7c-3.7,0-6.8-3-6.8-6.8v-25c0-3.7,3-6.8,6.8-6.8h189.9c3.7,0,6.8,3,6.8,6.8v25
	C231.4,285.2,228.3,288.2,224.6,288.2L224.6,288.2z"/>
<path class="st3" d="M224.6,288.2H34.7c-3.7,0-6.8-3-6.8-6.8v-25c0-3.7,3-6.8,6.8-6.8h189.9c3.7,0,6.8,3,6.8,6.8v25
	C231.4,285.2,228.3,288.2,224.6,288.2L224.6,288.2z"/>
<path class="st5" d="M224.6,249.6h-30v15c0,9.4,7.6,17.1,17.1,17.1h19.7c0-0.1,0-0.2,0-0.3v-25C231.4,252.6,228.3,249.6,224.6,249.6
	L224.6,249.6z"/>
<path class="st1" d="M278.1,295.9h-220c1.3,3.2,2,7.2,2,11.4s-0.7,8.1-2,11.4H278c-1.3-3.2-2-7.2-2-11.4S276.8,299.2,278.1,295.9z"
	/>
<path class="st7" d="M52.2,289.9H284v6H52.2V289.9z"/>
<path class="st3" d="M52.2,289.9H284v6H52.2V289.9z"/>
<path class="st8" d="M52.2,318.6H284v6H52.2V318.6z"/>
<path class="st7" d="M52.2,318.6H284v6H52.2V318.6z"/>
<path class="st3" d="M52.2,318.6H284v6H52.2V318.6z"/>
<path class="st9" d="M399.3,303.3l-3-33.7h-49.4l-3,33.7c-0.7,7.8-5.4,15.3-12.8,21.3v0.1h81v-0.1
	C404.7,318.6,400,311.1,399.3,303.3L399.3,303.3z"/>
<path class="st5" d="M346.9,269.7l-1.8,20.2h53l-1.8-20.2H346.9z"/>
<path class="st3" d="M399.3,303.3l-3-33.7h-49.4l-3,33.7c-0.7,7.8-5.4,15.3-12.8,21.3v0.1h81v-0.1
	C404.7,318.6,400,311.1,399.3,303.3L399.3,303.3z"/>
<path class="st2" d="M529.6,274.7h-316c-6.6,0-12-5.4-12-12v-206c0-6.6,5.4-12,12-12h316c6.6,0,12,5.4,12,12v206
	C541.6,269.3,536.2,274.7,529.6,274.7z"/>
<path class="st9" d="M529.6,274.7h-316c-6.6,0-12-5.4-12-12v-206c0-6.6,5.4-12,12-12h316c6.6,0,12,5.4,12,12v206
	C541.6,269.3,536.2,274.7,529.6,274.7z"/>
<path class="st3" d="M529.6,274.7h-316c-6.6,0-12-5.4-12-12v-206c0-6.6,5.4-12,12-12h316c6.6,0,12,5.4,12,12v206
	C541.6,269.3,536.2,274.7,529.6,274.7z"/>
<path class="st8" d="M524.6,61.7v174.6h-306V61.7H524.6z"/>
<path class="st5" d="M229.6,44.7v138.6c0,4.4,3.6,8,8,8h189.1c4.4,0,8-3.6,8-8V44.7H229.6z"/>
<path class="st3" d="M524.6,61.7v174.6h-306V61.7H524.6z"/>
<path class="st3" d="M358.1,255.4H385"/>
<path class="st10" d="M435.7,180.3H246.6c-4.4,0-8-3.6-8-8V24c0-4.4,3.6-8,8-8h189.1c4.4,0,8,3.6,8,8v148.3
	C443.7,176.7,440.1,180.3,435.7,180.3L435.7,180.3z"/>
<path class="st3" d="M443.7,35.4H238.6V24c0-4.4,3.6-8,8-8h189.1c4.4,0,8,3.6,8,8V35.4L443.7,35.4z"/>
<path class="st11" d="M443.7,39.3H238.6V24c0-4.4,3.6-8,8-8h189.1c4.4,0,8,3.6,8,8V39.3L443.7,39.3z"/>
<path class="st3" d="M443.7,39.3H238.6V24c0-4.4,3.6-8,8-8h189.1c4.4,0,8,3.6,8,8V39.3L443.7,39.3z"/>
<path class="st3" d="M443.7,39.3H238.6V24c0-4.4,3.6-8,8-8h189.1c4.4,0,8,3.6,8,8V39.3L443.7,39.3z"/>
<path class="st3" d="M435.7,180.3H246.6c-4.4,0-8-3.6-8-8V24c0-4.4,3.6-8,8-8h189.1c4.4,0,8,3.6,8,8v148.3
	C443.7,176.7,440.1,180.3,435.7,180.3L435.7,180.3z"/>
<path class="st5" d="M534.4,215.7h-116c-4.4,0-8-3.6-8-8v-123c0-4.4,3.6-8,8-8h116c4.4,0,8,3.6,8,8v122.9
	C542.4,212.1,538.8,215.7,534.4,215.7L534.4,215.7z"/>
<path class="st3" d="M542.4,208.7h-116c-4.4,0-8-3.6-8-8v-123c0-4.4,3.6-8,8-8h116c4.4,0,8,3.6,8,8v122.9
	C550.4,205.1,546.8,208.7,542.4,208.7L542.4,208.7z"/>
<path class="st3" d="M-154.3-329.7"/>
<path class="st12" d="M438.4,167.6h91.9 M438.4,178.4h91.9 M438.4,189.1h56"/>
<circle class="st13" cx="258.7" cy="27.6" r="4"/>
<circle class="st13" cx="272.6" cy="27.6" r="4"/>
<circle class="st13" cx="286.4" cy="27.6" r="4"/>
<path class="st14" d="M356.4,57.7h12.9"/>
<path class="st15" d="M290.4,57.7h56.4"/>
<path class="st16" d="M262.7,57.7h19.8 M288.4,156.3h43.1"/>
<path class="st15" d="M262.7,156.3h13.9"/>
<path class="st14" d="M346.8,70h8"/>
<path class="st16" d="M309.9,70h27.2"/>
<path class="st17" d="M272.6,70h27.7"/>
<path class="st14" d="M315.5,82.4h23.8"/>
<path class="st18" d="M285.4,82.4h22.5"/>
<path class="st14" d="M318.7,94.7h4.9"/>
<path class="st16" d="M298.9,94.7H310"/>
<path class="st15" d="M272.6,94.7h17.9"/>
<path class="st17" d="M311,107h31.9"/>
<path class="st18" d="M272.6,107h28.6"/>
<path class="st16" d="M347.8,119.3h17.3"/>
<path class="st18" d="M311,119.3h27.7"/>
<path class="st15" d="M285.4,119.3h15.7"/>
<path class="st14" d="M323.6,131.6h15.1"/>
<path class="st16" d="M285.4,131.6h27.7"/>
<path class="st14" d="M362.9,144h17.3"/>
<path class="st17" d="M309.9,144h43.6"/>
<path class="st14" d="M272.6,144h27.7"/>
<path class="st3" d="M60.6,302.9H276 M60.6,310.9H276 M278.1,295.9h-220c1.3,3.2,2,7.2,2,11.4s-0.7,8.1-2,11.4H278
	c-1.3-3.2-2-7.2-2-11.4S276.8,299.2,278.1,295.9z"/>
<path class="st19" d="M564.3,215.6l9.7-1.1l8.5,72.2l-9.7,1.1L564.3,215.6z"/>
<path class="st20" d="M564.2,215.6l9.7-1.1l0.9,7.3l-9.7,1.1L564.2,215.6z"/>
<path class="st3" d="M564.2,215.6l9.7-1.1l0.9,7.3l-9.7,1.1L564.2,215.6z"/>
<path class="st3" d="M564.3,215.6l9.7-1.1l8.5,72.2l-9.7,1.1L564.3,215.6z"/>
<path class="st21" d="M591,228.1l9.8,1.1l-7.9,72.2l-9.8-1.1L591,228.1z"/>
<path class="st3" d="M591,228.1l9.8,1.1l-7.9,72.2l-9.8-1.1L591,228.1z"/>
<path class="st10" d="M591,228.1l9.8,1.1l-0.8,7.3l-9.8-1.1L591,228.1z"/>
<path class="st3" d="M591,228.1l9.8,1.1l-0.8,7.3l-9.8-1.1L591,228.1z"/>
<path class="st22" d="M606.7,324.9h-39.3l-6.4-60.2h52L606.7,324.9z"/>
<path class="st22" d="M561.1,264.7l0.1,1.1h39.6l-6.3,59.1h12.2l6.4-60.2H561.1z"/>
<path class="st3" d="M606.7,324.9h-39.3l-6.4-60.2h52L606.7,324.9z"/>
<g class="st23">
	<path class="st2" d="M44.5,260.4h3.2v10c0,1.3-0.1,2.3-0.3,3c-0.3,0.9-0.9,1.7-1.7,2.2c-0.8,0.6-1.9,0.8-3.2,0.8
		c-1.6,0-2.8-0.4-3.6-1.3c-0.8-0.9-1.3-2.1-1.3-3.8l3-0.3c0,0.9,0.2,1.5,0.4,1.9c0.3,0.6,0.9,0.8,1.6,0.8c0.7,0,1.2-0.2,1.5-0.6
		c0.3-0.4,0.4-1.2,0.4-2.5V260.4z"/>
	<path class="st2" d="M65.3,276.1h-3.5l-1.4-3.6h-6.3l-1.3,3.6h-3.4l6.1-15.7H59L65.3,276.1z M59.4,269.9l-2.2-5.8l-2.1,5.8H59.4z"
		/>
	<path class="st2" d="M66.9,276.1v-15.7h4.8l2.9,10.7l2.8-10.7h4.8v15.7h-3v-12.4L76,276.1H73l-3.1-12.4v12.4H66.9z"/>
	<path class="st2" d="M84.2,272.9l3-0.5c0.1,0.6,0.4,1,0.8,1.3c0.4,0.3,0.9,0.5,1.7,0.5c0.8,0,1.4-0.1,1.8-0.4
		c0.3-0.2,0.4-0.5,0.4-0.8c0-0.2-0.1-0.4-0.2-0.6c-0.2-0.1-0.5-0.3-1-0.4c-2.4-0.5-4-1-4.6-1.5c-0.9-0.6-1.4-1.5-1.4-2.6
		c0-1,0.4-1.8,1.2-2.5c0.8-0.7,2-1,3.6-1c1.6,0,2.7,0.3,3.5,0.8c0.8,0.5,1.3,1.3,1.6,2.3l-2.8,0.5c-0.1-0.4-0.4-0.8-0.7-1
		c-0.3-0.2-0.8-0.4-1.5-0.4c-0.8,0-1.4,0.1-1.7,0.3c-0.2,0.2-0.3,0.4-0.3,0.6c0,0.2,0.1,0.4,0.3,0.5c0.3,0.2,1.2,0.5,2.8,0.8
		c1.6,0.4,2.7,0.8,3.4,1.3c0.6,0.5,0.9,1.3,0.9,2.2c0,1-0.4,1.9-1.3,2.7c-0.9,0.8-2.2,1.1-3.9,1.1c-1.6,0-2.8-0.3-3.7-0.9
		C85.1,274.8,84.5,273.9,84.2,272.9z"/>
	<path class="st2" d="M102.7,264.7v2.4h-2.1v4.6c0,0.9,0,1.5,0.1,1.6c0,0.2,0.1,0.3,0.3,0.4s0.3,0.2,0.5,0.2c0.3,0,0.7-0.1,1.2-0.3
		l0.3,2.3c-0.7,0.3-1.5,0.5-2.4,0.5c-0.5,0-1-0.1-1.5-0.3c-0.4-0.2-0.8-0.4-1-0.7c-0.2-0.3-0.3-0.7-0.4-1.2
		c-0.1-0.4-0.1-1.1-0.1-2.1v-5h-1.4v-2.4h1.4v-2.3l3-1.8v4H102.7z"/>
	<path class="st2" d="M107.1,268.2l-2.7-0.5c0.3-1.1,0.8-1.9,1.6-2.4s1.9-0.8,3.4-0.8c1.3,0,2.3,0.2,3,0.5c0.7,0.3,1.1,0.7,1.4,1.2
		c0.3,0.5,0.4,1.4,0.4,2.7l0,3.5c0,1,0,1.7,0.1,2.2c0.1,0.5,0.3,1,0.5,1.5h-3c-0.1-0.2-0.2-0.5-0.3-0.9c-0.1-0.2-0.1-0.3-0.1-0.4
		c-0.5,0.5-1.1,0.9-1.7,1.1c-0.6,0.3-1.2,0.4-1.9,0.4c-1.2,0-2.1-0.3-2.8-1s-1-1.4-1-2.4c0-0.6,0.2-1.2,0.5-1.7
		c0.3-0.5,0.7-0.9,1.3-1.2c0.6-0.3,1.4-0.5,2.4-0.7c1.4-0.3,2.4-0.5,2.9-0.7v-0.3c0-0.6-0.1-1-0.4-1.2c-0.3-0.2-0.8-0.4-1.6-0.4
		c-0.5,0-1,0.1-1.3,0.3C107.5,267.3,107.3,267.7,107.1,268.2z M111.1,270.6c-0.4,0.1-1,0.3-1.8,0.5s-1.4,0.4-1.6,0.5
		c-0.4,0.3-0.6,0.6-0.6,1.1c0,0.4,0.2,0.8,0.5,1.1c0.3,0.3,0.7,0.5,1.2,0.5c0.5,0,1.1-0.2,1.6-0.5c0.4-0.3,0.6-0.6,0.7-1
		c0.1-0.3,0.1-0.7,0.1-1.5V270.6z"/>
	<path class="st2" d="M127,268.1l-3,0.5c-0.1-0.6-0.3-1-0.7-1.3s-0.8-0.5-1.4-0.5c-0.8,0-1.4,0.3-1.8,0.8c-0.4,0.5-0.7,1.4-0.7,2.6
		c0,1.4,0.2,2.3,0.7,2.9c0.5,0.6,1.1,0.8,1.8,0.8c0.6,0,1-0.2,1.4-0.5c0.4-0.3,0.6-0.9,0.8-1.7l3,0.5c-0.3,1.4-0.9,2.4-1.8,3.1
		c-0.9,0.7-2,1-3.5,1c-1.7,0-3-0.5-4-1.6c-1-1.1-1.5-2.5-1.5-4.4c0-1.9,0.5-3.3,1.5-4.4c1-1,2.3-1.6,4-1.6c1.4,0,2.5,0.3,3.3,0.9
		C126.1,265.9,126.6,266.8,127,268.1z"/>
	<path class="st2" d="M129.2,276.1v-15.7h3v8.4l3.5-4h3.7l-3.9,4.2l4.2,7.2h-3.3l-2.9-5.1l-1.4,1.5v3.7H129.2z"/>
</g>
<g class="st23">
	<path class="st2" d="M148.8,276.1v-6.4h4.4v1.1h-3.1v1.5h2.7v1.1h-2.7v2.7H148.8z"/>
	<path class="st2" d="M154,273.7c0-0.4,0.1-0.8,0.3-1.2s0.5-0.7,0.9-0.9c0.4-0.2,0.8-0.3,1.2-0.3c0.7,0,1.3,0.2,1.7,0.7
		c0.5,0.5,0.7,1,0.7,1.7c0,0.7-0.2,1.3-0.7,1.8c-0.5,0.5-1,0.7-1.7,0.7c-0.4,0-0.8-0.1-1.2-0.3s-0.7-0.5-0.9-0.9
		C154.1,274.7,154,274.2,154,273.7z M155.3,273.8c0,0.5,0.1,0.8,0.3,1.1s0.5,0.4,0.8,0.4s0.6-0.1,0.8-0.4s0.3-0.6,0.3-1.1
		c0-0.5-0.1-0.8-0.3-1.1s-0.5-0.4-0.8-0.4s-0.6,0.1-0.8,0.4S155.3,273.3,155.3,273.8z"/>
	<path class="st2" d="M161,276.1h-1.2v-4.7h1.1v0.7c0.2-0.3,0.4-0.5,0.5-0.6s0.3-0.1,0.5-0.1c0.3,0,0.6,0.1,0.8,0.2l-0.4,1.1
		c-0.2-0.1-0.4-0.2-0.6-0.2c-0.2,0-0.3,0-0.4,0.1c-0.1,0.1-0.2,0.3-0.3,0.5c-0.1,0.2-0.1,0.8-0.1,1.6V276.1z"/>
	<path class="st2" d="M165.7,271.4h1.2v0.7c0.1-0.2,0.4-0.4,0.6-0.6s0.5-0.2,0.8-0.2c0.5,0,1,0.2,1.4,0.6s0.6,1,0.6,1.8
		c0,0.8-0.2,1.4-0.6,1.8c-0.4,0.4-0.8,0.6-1.4,0.6c-0.3,0-0.5-0.1-0.7-0.2c-0.2-0.1-0.4-0.3-0.7-0.5v2.4h-1.2V271.4z M167,273.7
		c0,0.5,0.1,0.9,0.3,1.2c0.2,0.2,0.5,0.4,0.8,0.4c0.3,0,0.5-0.1,0.7-0.3c0.2-0.2,0.3-0.6,0.3-1.1c0-0.5-0.1-0.9-0.3-1.1
		c-0.2-0.2-0.4-0.4-0.7-0.4c-0.3,0-0.6,0.1-0.8,0.3C167.1,272.9,167,273.2,167,273.7z"/>
	<path class="st2" d="M172.5,276.1h-1.2v-4.7h1.1v0.7c0.2-0.3,0.4-0.5,0.5-0.6s0.3-0.1,0.5-0.1c0.3,0,0.6,0.1,0.8,0.2l-0.4,1.1
		c-0.2-0.1-0.4-0.2-0.6-0.2c-0.2,0-0.3,0-0.4,0.1c-0.1,0.1-0.2,0.3-0.3,0.5c-0.1,0.2-0.1,0.8-0.1,1.6V276.1z"/>
	<path class="st2" d="M174.5,273.7c0-0.4,0.1-0.8,0.3-1.2s0.5-0.7,0.9-0.9c0.4-0.2,0.8-0.3,1.2-0.3c0.7,0,1.3,0.2,1.7,0.7
		c0.5,0.5,0.7,1,0.7,1.7c0,0.7-0.2,1.3-0.7,1.8c-0.5,0.5-1,0.7-1.7,0.7c-0.4,0-0.8-0.1-1.2-0.3s-0.7-0.5-0.9-0.9
		C174.6,274.7,174.5,274.2,174.5,273.7z M175.8,273.8c0,0.5,0.1,0.8,0.3,1.1s0.5,0.4,0.8,0.4s0.6-0.1,0.8-0.4s0.3-0.6,0.3-1.1
		c0-0.5-0.1-0.8-0.3-1.1s-0.5-0.4-0.8-0.4s-0.6,0.1-0.8,0.4S175.8,273.3,175.8,273.8z"/>
	<path class="st2" d="M179.8,274.8l1.2-0.2c0.1,0.2,0.2,0.4,0.3,0.5c0.2,0.1,0.4,0.2,0.7,0.2c0.3,0,0.6-0.1,0.7-0.2
		c0.1-0.1,0.2-0.2,0.2-0.3c0-0.1,0-0.2-0.1-0.2c-0.1-0.1-0.2-0.1-0.4-0.2c-1-0.2-1.6-0.4-1.9-0.6c-0.4-0.3-0.6-0.6-0.6-1.1
		c0-0.4,0.2-0.7,0.5-1s0.8-0.4,1.5-0.4c0.6,0,1.1,0.1,1.4,0.3c0.3,0.2,0.5,0.5,0.6,0.9l-1.2,0.2c0-0.2-0.1-0.3-0.3-0.4
		c-0.1-0.1-0.3-0.1-0.6-0.1c-0.3,0-0.6,0-0.7,0.1c-0.1,0.1-0.1,0.1-0.1,0.2c0,0.1,0,0.2,0.1,0.2c0.1,0.1,0.5,0.2,1.2,0.3
		s1.1,0.3,1.4,0.5c0.3,0.2,0.4,0.5,0.4,0.9c0,0.4-0.2,0.8-0.5,1.1c-0.4,0.3-0.9,0.5-1.6,0.5c-0.6,0-1.1-0.1-1.5-0.4
		C180.2,275.6,180,275.2,179.8,274.8z"/>
	<path class="st2" d="M185.7,272.6l-0.7-0.5c0.2-0.2,0.4-0.5,0.7-0.7c0.1-0.1,0.1-0.1,0.2-0.2c-0.1,0-0.3-0.1-0.6-0.1
		c-0.2-0.1-0.4-0.1-0.5-0.1l0.3-0.8c0.4,0.2,0.7,0.3,1,0.5c-0.1-0.5-0.1-0.9-0.1-1.2h0.8c0,0.2,0,0.6-0.1,1.2c0.1,0,0.2-0.1,0.4-0.2
		c0.3-0.1,0.5-0.2,0.7-0.3l0.2,0.8c-0.3,0.1-0.7,0.1-1.1,0.2l0.5,0.6c0.1,0.1,0.2,0.2,0.3,0.3l-0.7,0.4l-0.6-1
		C186.1,271.9,185.9,272.3,185.7,272.6z"/>
</g>
</svg>
