<?xml version="1.0" encoding="utf-8"?>
<!-- Generator: Adobe Illustrator 27.2.0, SVG Export Plug-In . SVG Version: 6.00 Build 0)  -->
<svg version="1.1" id="programming" xmlns="http://www.w3.org/2000/svg" xmlns:xlink="http://www.w3.org/1999/xlink" x="0px"
	 y="0px" viewBox="0 0 660 356.7" style="enable-background:new 0 0 660 356.7;" xml:space="preserve">
<style type="text/css">
	.st0{fill:#C9C9C9;}
	.st1{fill:#CECECE;}
	.st2{fill:#FFFFFF;}
	.st3{fill:none;stroke:#1F3969;stroke-width:4;stroke-linecap:round;stroke-linejoin:round;stroke-miterlimit:10;}
	.st4{fill:#FF3E3E;}
	
		.st5{opacity:0.28;fill:#1F3969;stroke:#1F3969;stroke-width:4;stroke-linecap:round;stroke-linejoin:round;stroke-miterlimit:10;enable-background:new    ;}
	.st6{fill:#50B56F;}
	.st7{fill:#5F5AFF;}
	.st8{fill:#F6F9FD;}
	.st9{fill:#BFCFE2;}
	.st10{fill:#2D425E;}
	.st11{fill:#D0DDF0;}
	
		.st12{fill:none;stroke:#1F3969;stroke-width:4;stroke-linecap:round;stroke-linejoin:round;stroke-miterlimit:10;enable-background:new    ;}
	.st13{fill:none;stroke:#FFFFFF;stroke-width:2;stroke-linecap:round;stroke-linejoin:round;stroke-miterlimit:10;}
	.st14{fill:#1F3969;}
	.st15{fill:none;stroke:#FFFFFF;stroke-width:4;stroke-linecap:round;stroke-linejoin:round;stroke-miterlimit:10;}
	.st16{fill:none;stroke:#7BFFA0;stroke-width:4;stroke-linecap:round;stroke-linejoin:round;stroke-miterlimit:10;}
	.st17{fill:none;stroke:#9169FF;stroke-width:4;stroke-linecap:round;stroke-linejoin:round;stroke-miterlimit:10;}
	.st18{fill:none;stroke:#FFC47D;stroke-width:4;stroke-linecap:round;stroke-linejoin:round;stroke-miterlimit:10;}
	.st19{fill:none;stroke:#FF5757;stroke-width:4;stroke-linecap:round;stroke-linejoin:round;stroke-miterlimit:10;}
	.st20{fill:#FFA364;}
	.st21{fill:#2AA1FF;}
	.st22{fill:#FF5252;}
	.st23{fill:#6567C3;}
	.st24{fill:#3F5A7C;}
	.st25{font-family:'OpenSans-Bold';}
	.st26{font-size:21px;}
</style>
<path class="st0" d="M635.2,336.6H14.8c-5,0-9-4-9-9s4-9,9-9h620.3c5,0,9,4,9,9S640.1,336.6,635.2,336.6z"/>
<path class="st1" d="M131.6,243.6c-9.6,0-17.3-7.8-17.3-17.3s7.8-17.3,17.3-17.3h98v34.7H131.6z"/>
<path class="st2" d="M235.3,249.6H131.6c-12.9,0-23.3-10.5-23.3-23.3c0-12.9,10.5-23.3,23.3-23.3h103.7V249.6L235.3,249.6z"/>
<path class="st3" d="M125.2,220.9h104.4 M125.2,231.5h104.4 M131.6,243.6c-9.6,0-17.3-7.8-17.3-17.3s7.8-17.3,17.3-17.3h98v34.7
	H131.6z"/>
<path class="st4" d="M131.6,243.6c-9.6,0-17.3-7.8-17.3-17.3s7.8-17.3,17.3-17.3h99.7l4-6H131.6c-12.9,0-23.3,10.5-23.3,23.3
	c0,12.9,10.5,23.3,23.3,23.3h103.7l-4-6L131.6,243.6L131.6,243.6z"/>
<path class="st3" d="M131.6,243.6c-9.6,0-17.3-7.8-17.3-17.3s7.8-17.3,17.3-17.3h99.7l4-6H131.6c-12.9,0-23.3,10.5-23.3,23.3l0,0
	c0,12.9,10.5,23.3,23.3,23.3h103.7l-4-6L131.6,243.6L131.6,243.6z"/>
<path class="st5" d="M194.6,202.9H213v46.7h-18.4V202.9z"/>
<path class="st6" d="M224.6,288.2H34.7c-3.7,0-6.8-3-6.8-6.8v-25c0-3.7,3-6.8,6.8-6.8h189.9c3.7,0,6.8,3,6.8,6.8v25
	C231.4,285.2,228.3,288.2,224.6,288.2C224.6,288.2,224.6,288.2,224.6,288.2z"/>
<path class="st3" d="M224.6,288.2H34.7c-3.7,0-6.8-3-6.8-6.8v-25c0-3.7,3-6.8,6.8-6.8h189.9c3.7,0,6.8,3,6.8,6.8v25
	C231.4,285.2,228.3,288.2,224.6,288.2C224.6,288.2,224.6,288.2,224.6,288.2z"/>
<path class="st5" d="M224.6,249.6h-30v15c0,9.4,7.6,17.1,17.1,17.1h19.7c0-0.1,0-0.2,0-0.3v-25C231.4,252.6,228.3,249.6,224.6,249.6
	L224.6,249.6z"/>
<path class="st1" d="M278.1,295.9H58.1c1.3,3.2,2,7.2,2,11.4s-0.7,8.1-2,11.4h219.9c-1.3-3.2-2-7.2-2-11.4
	C276,303.1,276.8,299.2,278.1,295.9z"/>
<path class="st7" d="M52.2,289.9H284v6H52.2L52.2,289.9z"/>
<path class="st3" d="M52.2,289.9H284v6H52.2L52.2,289.9z"/>
<path class="st8" d="M52.2,318.6H284v6H52.2L52.2,318.6z"/>
<path class="st7" d="M52.2,318.6H284v6H52.2L52.2,318.6z"/>
<path class="st3" d="M52.2,318.6H284v6H52.2L52.2,318.6z"/>
<path class="st9" d="M399.3,303.3l-3-33.7h-49.4l-3,33.7c-0.7,7.8-5.4,15.3-12.8,21.3l0,0.1h81l0-0.1
	C404.7,318.6,400,311.1,399.3,303.3L399.3,303.3z"/>
<path class="st5" d="M346.9,269.7l-1.8,20.2h53l-1.8-20.2H346.9z"/>
<path class="st3" d="M399.3,303.3l-3-33.7h-49.4l-3,33.7c-0.7,7.8-5.4,15.3-12.8,21.3l0,0.1h81l0-0.1
	C404.7,318.6,400,311.1,399.3,303.3L399.3,303.3z"/>
<path class="st2" d="M529.6,274.7h-316c-6.6,0-12-5.4-12-12v-206c0-6.6,5.4-12,12-12h316c6.6,0,12,5.4,12,12v206
	C541.6,269.3,536.2,274.7,529.6,274.7z"/>
<path class="st9" d="M529.6,274.7h-316c-6.6,0-12-5.4-12-12v-206c0-6.6,5.4-12,12-12h316c6.6,0,12,5.4,12,12v206
	C541.6,269.3,536.2,274.7,529.6,274.7z"/>
<path class="st3" d="M529.6,274.7h-316c-6.6,0-12-5.4-12-12v-206c0-6.6,5.4-12,12-12h316c6.6,0,12,5.4,12,12v206
	C541.6,269.3,536.2,274.7,529.6,274.7z"/>
<path class="st8" d="M524.6,61.7v174.6h-306V61.7H524.6z"/>
<path class="st5" d="M229.6,44.7v138.6c0,4.4,3.6,8,8,8h189.1c4.4,0,8-3.6,8-8V44.7H229.6z"/>
<path class="st3" d="M524.6,61.7v174.6h-306V61.7H524.6z"/>
<path class="st3" d="M358.1,255.4H385"/>
<path class="st10" d="M435.7,180.3H246.6c-4.4,0-8-3.6-8-8V24c0-4.4,3.6-8,8-8h189.1c4.4,0,8,3.6,8,8v148.3
	C443.7,176.7,440.1,180.3,435.7,180.3C435.7,180.3,435.7,180.3,435.7,180.3z"/>
<path class="st3" d="M443.7,35.4H238.6V24c0-4.4,3.6-8,8-8h189.1c4.4,0,8,3.6,8,8L443.7,35.4L443.7,35.4z"/>
<path class="st11" d="M443.7,39.3H238.6V24c0-4.4,3.6-8,8-8h189.1c4.4,0,8,3.6,8,8L443.7,39.3L443.7,39.3z"/>
<path class="st3" d="M443.7,39.3H238.6V24c0-4.4,3.6-8,8-8h189.1c4.4,0,8,3.6,8,8L443.7,39.3L443.7,39.3z"/>
<path class="st3" d="M443.7,39.3H238.6V24c0-4.4,3.6-8,8-8h189.1c4.4,0,8,3.6,8,8L443.7,39.3L443.7,39.3z"/>
<path class="st3" d="M435.7,180.3H246.6c-4.4,0-8-3.6-8-8V24c0-4.4,3.6-8,8-8h189.1c4.4,0,8,3.6,8,8v148.3
	C443.7,176.7,440.1,180.3,435.7,180.3C435.7,180.3,435.7,180.3,435.7,180.3z"/>
<path class="st5" d="M534.4,215.7h-116c-4.4,0-8-3.6-8-8V84.7c0-4.4,3.6-8,8-8h116c4.4,0,8,3.6,8,8v122.9
	C542.4,212.1,538.8,215.7,534.4,215.7L534.4,215.7z"/>
<path class="st3" d="M542.4,208.7h-116c-4.4,0-8-3.6-8-8V77.7c0-4.4,3.6-8,8-8h116c4.4,0,8,3.6,8,8v122.9
	C550.4,205.1,546.8,208.7,542.4,208.7L542.4,208.7z"/>
<path class="st12" d="M-154.3-329.7"/>
<path class="st13" d="M438.4,167.6h91.9 M438.4,178.4h91.9 M438.4,189.1h56"/>
<circle class="st14" cx="258.7" cy="27.6" r="4"/>
<circle class="st14" cx="272.6" cy="27.6" r="4"/>
<circle class="st14" cx="286.4" cy="27.6" r="4"/>
<path class="st15" d="M356.4,57.7h12.9"/>
<path class="st16" d="M290.4,57.7h56.4"/>
<path class="st17" d="M262.7,57.7h19.8 M288.4,156.3h43.1"/>
<path class="st16" d="M262.7,156.3h13.9"/>
<path class="st15" d="M346.8,70h8"/>
<path class="st17" d="M309.9,70h27.2"/>
<path class="st18" d="M272.6,70h27.7"/>
<path class="st15" d="M315.5,82.4h23.8"/>
<path class="st19" d="M285.4,82.4h22.5"/>
<path class="st15" d="M318.7,94.7h4.9"/>
<path class="st17" d="M298.9,94.7h11.1"/>
<path class="st16" d="M272.6,94.7h17.9"/>
<path class="st18" d="M311,107h31.9"/>
<path class="st19" d="M272.6,107h28.6"/>
<path class="st17" d="M347.8,119.3h17.3"/>
<path class="st19" d="M311,119.3h27.7"/>
<path class="st16" d="M285.4,119.3h15.7"/>
<path class="st15" d="M323.6,131.6h15.1"/>
<path class="st17" d="M285.4,131.6h27.7"/>
<path class="st15" d="M362.9,144h17.3"/>
<path class="st18" d="M309.9,144h43.6"/>
<path class="st15" d="M272.6,144h27.7"/>
<path class="st3" d="M60.6,302.9H276 M60.6,310.9H276 M278.1,295.9H58.1c1.3,3.2,2,7.2,2,11.4s-0.7,8.1-2,11.4h219.9
	c-1.3-3.2-2-7.2-2-11.4C276,303.1,276.8,299.2,278.1,295.9z"/>
<path class="st20" d="M564.3,215.6l9.7-1.1l8.5,72.2l-9.7,1.1L564.3,215.6z"/>
<path class="st21" d="M564.2,215.6l9.7-1.1l0.9,7.3l-9.7,1.1L564.2,215.6z"/>
<path class="st3" d="M564.2,215.6l9.7-1.1l0.9,7.3l-9.7,1.1L564.2,215.6z"/>
<path class="st3" d="M564.3,215.6l9.7-1.1l8.5,72.2l-9.7,1.1L564.3,215.6z"/>
<path class="st22" d="M591,228.1l9.8,1.1l-7.9,72.2l-9.8-1.1L591,228.1z"/>
<path class="st3" d="M591,228.1l9.8,1.1l-7.9,72.2l-9.8-1.1L591,228.1z"/>
<path class="st10" d="M591,228.1l9.8,1.1l-0.8,7.3l-9.8-1.1L591,228.1z"/>
<path class="st3" d="M591,228.1l9.8,1.1l-0.8,7.3l-9.8-1.1L591,228.1z"/>
<path class="st23" d="M606.7,324.9h-39.3l-6.4-60.2h52L606.7,324.9z"/>
<path class="st23" d="M561.1,264.7l0.1,1.1h39.6l-6.3,59.1h12.2l6.4-60.2H561.1z"/>
<path class="st3" d="M606.7,324.9h-39.3l-6.4-60.2h52L606.7,324.9z"/>
<text transform="matrix(1 0 0 1 77.4359 274.6789)" class="st24 st25 st26">JAMstack</text>
</svg>
